<svg id="Layer_1" data-name="Layer 1" xmlns="http://www.w3.org/2000/svg" viewBox="0 0 393.19921 197.64963"><path d="M174.78342,68.35987a40.36551,40.36551,0,0,1,6.4711-.53185,42.04366,42.04366,0,0,1,6.55971.53185v63.73591a41.52,41.52,0,0,1-6.471.532,40.90057,40.90057,0,0,1-6.55978-.532Z" transform="translate(-66.69717 -0.14055)"/><path d="M200.22341,86.26618a24.01665,24.01665,0,0,1,2.48211-.39891,25.93219,25.93219,0,0,1,2.74794-.13292,23.49416,23.49416,0,0,1,2.65941.13292q1.15109.13291,2.39342.39891a5.14262,5.14262,0,0,1,.4876,1.28536q.22005.84343.39876,1.77289.17673.93079.3103,1.81719.13293.88711.22162,1.507a20.79779,20.79779,0,0,1,2.12749-2.65933,15.27364,15.27364,0,0,1,2.88094-2.39341,15.59738,15.59738,0,0,1,3.67878-1.72858,14.52148,14.52148,0,0,1,4.521-.66484q7.79928,0,11.74536,4.255,3.94334,4.25484,3.94478,13.38541v29.25294a37.49513,37.49513,0,0,1-12.58758,0v-25.8844a15.077,15.077,0,0,0-1.46275-7.35762q-1.46259-2.56995-5.097-2.57071a11.585,11.585,0,0,0-3.10255.44322,6.52014,6.52014,0,0,0-2.881,1.72859,9.29448,9.29448,0,0,0-2.08311,3.59016,18.83468,18.83468,0,0,0-.79782,6.028v24.02273a37.49531,37.49531,0,0,1-12.58761,0Z" transform="translate(-66.69717 -0.14055)"/><path d="M255.27113,95.83991h-7.26885a23.85252,23.85252,0,0,1-.35461-2.57072q-.08925-1.15107-.08862-2.39349,0-1.15095.08862-2.21611a21.19394,21.19394,0,0,1,.35461-2.39341h7.26885V84.05a20.89282,20.89282,0,0,1,1.28535-7.57914,14.97587,14.97587,0,0,1,3.67878-5.58459,16.20636,16.20636,0,0,1,5.71765-3.45724,21.45587,21.45587,0,0,1,7.31323-1.19666,38.11332,38.11332,0,0,1,4.47653.22162,25.17268,25.17268,0,0,1,3.94476.84212,49.90748,49.90748,0,0,1-.57622,5.27437,24.28832,24.28832,0,0,1-1.28543,4.6539q-.97646-.17661-2.03873-.39892a14.55122,14.55122,0,0,0-2.83672-.2216,8.19706,8.19706,0,0,0-5.05274,1.46265Q267.94667,79.52909,267.77,84.316v1.95019h10.63747a24.24526,24.24526,0,0,1,.35462,2.57071q.08736,1.153.0886,2.39342,0,1.15308-.0886,2.21611a21.47806,21.47806,0,0,1-.35462,2.39349H267.77v36.25587a37.729,37.729,0,0,1-6.2051.532,38.22587,38.22587,0,0,1-6.29379-.532Z" transform="translate(-66.69717 -0.14055)"/><path d="M287.36024,86.26618q1.3299-.266,2.52663-.39891a23.77265,23.77265,0,0,1,2.615-.13292,19.20726,19.20726,0,0,1,2.61495.17723q1.28387.17871,2.52634.4433a5.13332,5.13332,0,0,1,.4876,1.28527q.22029.84354.39883,1.77289.17683.93078.31038,1.8615.13315.9308.22162,1.55135a22.84543,22.84543,0,0,1,4.78666-4.91974,11.32653,11.32653,0,0,1,7.09155-2.1718q.88535,0,2.039.08861a7.72407,7.72407,0,0,1,1.68411.26592,17.48243,17.48243,0,0,1,.26616,2.03889q.08736,1.153.08846,2.39333,0,1.50835-.133,3.27994a23.82447,23.82447,0,0,1-.48746,3.36853,12.23756,12.23756,0,0,0-2.17172-.17738h-1.46266a20.703,20.703,0,0,0-3.36854.31031,7.75518,7.75518,0,0,0-3.54594,1.64,9.69028,9.69028,0,0,0-2.79217,3.989,19.936,19.936,0,0,0-1.10805,7.4463v21.80647a29.34749,29.34749,0,0,1-3.19132.35477q-1.59573.08714-3.10255.08878-1.50862,0-3.05834-.08878-1.552-.08923-3.23553-.35477Z" transform="translate(-66.69717 -0.14055)"/><path d="M322.99488,86.26618q1.32966-.266,2.52649-.39891a23.77831,23.77831,0,0,1,2.61493-.13292,19.20812,19.20812,0,0,1,2.61512.17723q1.28388.17871,2.52633.4433a5.13878,5.13878,0,0,1,.4876,1.28527q.22005.84354.39884,1.77289.17661.93078.31022,1.8615.13316.9308.22177,1.55135a22.83886,22.83886,0,0,1,4.78666-4.91974,11.32594,11.32594,0,0,1,7.09156-2.1718q.88536,0,2.03887.08861a7.72779,7.72779,0,0,1,1.68428.26592,17.48259,17.48259,0,0,1,.26615,2.03889q.08713,1.153.08846,2.39333,0,1.50835-.133,3.27994a23.80132,23.80132,0,0,1-.48745,3.36853,12.23943,12.23943,0,0,0-2.17188-.17738h-1.46266a20.7062,20.7062,0,0,0-3.36855.31031,7.75479,7.75479,0,0,0-3.54578,1.64,9.689,9.689,0,0,0-2.79217,3.989,19.93641,19.93641,0,0,0-1.108,7.4463v21.80647a29.35108,29.35108,0,0,1-3.19132.35477q-1.59573.08714-3.10255.08878-1.50859,0-3.05832-.08878-1.552-.08923-3.23555-.35477Z" transform="translate(-66.69717 -0.14055)"/><path d="M384.77991,67.2961a29.39213,29.39213,0,0,1,3.1471-.35452q1.54971-.08736,3.05815-.08862,1.50628,0,3.10256.08862a29.37491,29.37491,0,0,1,3.19132.35452v63.29279a63.65732,63.65732,0,0,1-8.46575,1.90573,69.47764,69.47764,0,0,1-10.41571.66484,31.26477,31.26477,0,0,1-8.99743-1.28545,20.65557,20.65557,0,0,1-7.57915-4.07744,19.30523,19.30523,0,0,1-5.18581-7.22471,30.09434,30.09434,0,0,1-.266-20.34411,22.661,22.661,0,0,1,4.69836-7.75638,22.17054,22.17054,0,0,1,7.40178-5.18575,23.8,23.8,0,0,1,9.66227-1.906q1.5957,0,3.32431.13308a17.39844,17.39844,0,0,1,3.324.57614Zm0,28.45513a24.62387,24.62387,0,0,0-2.88078-.57623,24.16744,24.16744,0,0,0-2.79233-.13292,10.39517,10.39517,0,0,0-5.097,1.19667,10.63477,10.63477,0,0,0-3.59016,3.19116,13.62783,13.62783,0,0,0-2.08327,4.69836,23.4952,23.4952,0,0,0-.66483,5.62889,18.71109,18.71109,0,0,0,.88659,6.16087,10.21649,10.21649,0,0,0,2.43773,4.03338,9.07319,9.07319,0,0,0,3.6786,2.17173,15.37921,15.37921,0,0,0,4.6096.66483,26.01524,26.01524,0,0,0,2.7481-.13284,15.74545,15.74545,0,0,0,2.74779-.57637Z" transform="translate(-66.69717 -0.14055)"/><path d="M93.52132,97.8855a15.50659,15.50659,0,0,1,5.54291-11.89473H80.57087A30.69388,30.69388,0,0,0,78.1928,97.8855Z" transform="translate(-66.69717 -0.14055)" fill="#00cd9b"/><path d="M67.279,67.02645h41.7724A30.84448,30.84448,0,0,1,135.723,82.35467c.01837.033.04065.07023.05942.103a30.33808,30.33808,0,0,1,1.74921,3.53308A30.78686,30.78686,0,0,1,139.914,97.8855H124.58576a15.5336,15.5336,0,0,0-13.7521-15.42781,14.97976,14.97976,0,0,0-1.78222-.103H82.38307l.004-.00335A15.52932,15.52932,0,0,1,67.279,67.02645Z" transform="translate(-66.69717 -0.14055)" fill="#00cd9b"/><path d="M137.49105,113.4269a30.71775,30.71775,0,0,0,2.42674-12.009H124.589a15.51715,15.51715,0,0,1-5.68269,12.009Z" transform="translate(-66.69717 -0.14055)" fill="#00cd9b"/><path d="M78.19637,101.41794H93.52459a15.53067,15.53067,0,0,0,15.53432,15.53044H135.727l-.004.00327c.09578.00389.19513.00795.29061.01137a15.52809,15.52809,0,0,1,14.817,15.31373h-41.7717A30.8506,30.8506,0,0,1,82.3939,116.963l-.00686-.01464a30.26579,30.26579,0,0,1-1.76066-3.52148A30.81041,30.81041,0,0,1,78.19637,101.41794Z" transform="translate(-66.69717 -0.14055)" fill="#00cd9b"/><rect width="393.19921" height="197.64963" fill="none"/></svg>